<svg xmlns="http://www.w3.org/2000/svg" width="80" height="80" viewBox="0 0 80 80" fill="none">
  <!-- Receive: Gift/package opening with valuable contents -->
  <defs>
    <linearGradient id="receiveGrad" x1="0%" y1="0%" x2="100%" y2="100%">
      <stop offset="0%" stop-color="#E8B84A"/>
      <stop offset="100%" stop-color="#D4944C"/>
    </linearGradient>
    <linearGradient id="glowGrad" x1="50%" y1="100%" x2="50%" y2="0%">
      <stop offset="0%" stop-color="#E8B84A" stop-opacity="0.2"/>
      <stop offset="100%" stop-color="#E8B84A" stop-opacity="0.8"/>
    </linearGradient>
  </defs>
  <!-- Gift box bottom -->
  <rect x="14" y="40" width="52" height="30" rx="3" stroke="url(#receiveGrad)" stroke-width="2.5" fill="none"/>
  <!-- Gift box lid (opening) -->
  <path d="M10 40L14 28H66L70 40" stroke="#E8B84A" stroke-width="2.5" fill="none" stroke-linejoin="round"/>
  <!-- Lid flying off -->
  <path d="M18 22L12 8H68L62 22" stroke="#E8B84A" stroke-width="2" fill="none" stroke-linejoin="round" opacity="0.6"/>
  <!-- Ribbon vertical -->
  <path d="M40 28V70" stroke="#E8B84A" stroke-width="2"/>
  <!-- Ribbon horizontal -->
  <path d="M14 52H66" stroke="#E8B84A" stroke-width="2"/>
  <!-- Bow -->
  <ellipse cx="34" cy="34" rx="6" ry="4" stroke="#E8B84A" stroke-width="2" fill="none" transform="rotate(-20 34 34)"/>
  <ellipse cx="46" cy="34" rx="6" ry="4" stroke="#E8B84A" stroke-width="2" fill="none" transform="rotate(20 46 34)"/>
  <circle cx="40" cy="36" r="3" fill="#E8B84A"/>
  <!-- Value/light emanating -->
  <path d="M40 20V8" stroke="#E8B84A" stroke-width="2" stroke-linecap="round"/>
  <path d="M28 16L22 8" stroke="#E8B84A" stroke-width="1.5" stroke-linecap="round"/>
  <path d="M52 16L58 8" stroke="#E8B84A" stroke-width="1.5" stroke-linecap="round"/>
  <!-- Sparkles of value -->
  <circle cx="20" cy="12" r="2" fill="#E8B84A"/>
  <circle cx="60" cy="12" r="2" fill="#E8B84A"/>
  <circle cx="40" cy="4" r="2" fill="#E8B84A"/>
  <!-- Star accents -->
  <path d="M8 24L10 28L14 28L11 31L12 35L8 33L4 35L5 31L2 28L6 28Z" fill="#E8B84A" opacity="0.7"/>
  <path d="M72 24L74 28L78 28L75 31L76 35L72 33L68 35L69 31L66 28L70 28Z" fill="#E8B84A" opacity="0.7"/>
  <!-- Document hint inside -->
  <rect x="32" y="56" width="16" height="10" rx="1" stroke="#E8B84A" stroke-width="1" fill="none" opacity="0.5"/>
  <path d="M35 59H45M35 62H42" stroke="#E8B84A" stroke-width="1" stroke-linecap="round" opacity="0.5"/>
</svg>