<svg xmlns="http://www.w3.org/2000/svg" width="80" height="80" viewBox="0 0 80 80" fill="none">
  <!-- Prepare: Checklist with items organizing -->
  <defs>
    <linearGradient id="prepGrad" x1="0%" y1="0%" x2="100%" y2="100%">
      <stop offset="0%" stop-color="#E8B84A"/>
      <stop offset="100%" stop-color="#D4944C"/>
    </linearGradient>
  </defs>
  <!-- Clipboard -->
  <rect x="14" y="12" width="40" height="56" rx="4" stroke="url(#prepGrad)" stroke-width="2.5" fill="none"/>
  <!-- Clipboard clip -->
  <path d="M26 8H42V16H26V8Z" stroke="#E8B84A" stroke-width="2" fill="none"/>
  <path d="M30 8V6C30 4 32 2 34 2C36 2 38 4 38 6V8" stroke="#E8B84A" stroke-width="1.5" fill="none"/>
  <!-- Checklist items -->
  <!-- Item 1 - checked -->
  <rect x="20" y="24" width="6" height="6" rx="1" stroke="#E8B84A" stroke-width="1.5" fill="none"/>
  <path d="M21 27L23 29L27 24" stroke="#E8B84A" stroke-width="1.5" stroke-linecap="round" stroke-linejoin="round"/>
  <path d="M30 27H48" stroke="#E8B84A" stroke-width="2" stroke-linecap="round"/>
  <!-- Item 2 - checked -->
  <rect x="20" y="36" width="6" height="6" rx="1" stroke="#E8B84A" stroke-width="1.5" fill="none"/>
  <path d="M21 39L23 41L27 36" stroke="#E8B84A" stroke-width="1.5" stroke-linecap="round" stroke-linejoin="round"/>
  <path d="M30 39H44" stroke="#E8B84A" stroke-width="2" stroke-linecap="round"/>
  <!-- Item 3 - in progress -->
  <rect x="20" y="48" width="6" height="6" rx="1" stroke="#E8B84A" stroke-width="1.5" fill="none"/>
  <circle cx="23" cy="51" r="1.5" fill="#E8B84A"/>
  <path d="M30 51H40" stroke="#E8B84A" stroke-width="2" stroke-linecap="round" opacity="0.6"/>
  <!-- Flying organized dots -->
  <circle cx="60" cy="20" r="4" fill="#E8B84A"/>
  <circle cx="68" cy="32" r="4" fill="#E8B84A" opacity="0.8"/>
  <circle cx="64" cy="44" r="4" fill="#E8B84A" opacity="0.6"/>
  <!-- Motion lines showing organization -->
  <path d="M56 22L52 26" stroke="#E8B84A" stroke-width="1.5" stroke-linecap="round"/>
  <path d="M64 34L58 38" stroke="#E8B84A" stroke-width="1.5" stroke-linecap="round"/>
  <path d="M60 46L54 50" stroke="#E8B84A" stroke-width="1.5" stroke-linecap="round"/>
  <!-- Readiness indicator -->
  <path d="M66 60L70 66L78 54" stroke="#E8B84A" stroke-width="2.5" stroke-linecap="round" stroke-linejoin="round"/>
</svg>