<svg xmlns="http://www.w3.org/2000/svg" width="80" height="80" viewBox="0 0 80 80" fill="none">
  <!-- Connect: Video call / two people meeting with energy -->
  <defs>
    <linearGradient id="connectGrad" x1="0%" y1="0%" x2="100%" y2="100%">
      <stop offset="0%" stop-color="#E8B84A"/>
      <stop offset="100%" stop-color="#D4944C"/>
    </linearGradient>
  </defs>
  <!-- Video frame -->
  <rect x="8" y="16" width="64" height="44" rx="4" stroke="url(#connectGrad)" stroke-width="2.5" fill="none"/>
  <!-- Screen reflection -->
  <path d="M12 20L20 28" stroke="#E8B84A" stroke-width="1" stroke-linecap="round" opacity="0.3"/>
  <!-- Person 1 (left) -->
  <circle cx="28" cy="34" r="8" stroke="#E8B84A" stroke-width="2" fill="none"/>
  <path d="M18 52C18 46 22 42 28 42C34 42 38 46 38 52" stroke="#E8B84A" stroke-width="2" fill="none" stroke-linecap="round"/>
  <!-- Person 2 (right) -->
  <circle cx="52" cy="34" r="8" stroke="#E8B84A" stroke-width="2" fill="none"/>
  <path d="M42 52C42 46 46 42 52 42C58 42 62 46 62 52" stroke="#E8B84A" stroke-width="2" fill="none" stroke-linecap="round"/>
  <!-- Connection energy between them -->
  <path d="M36 38H44" stroke="#E8B84A" stroke-width="2" stroke-linecap="round"/>
  <circle cx="40" cy="38" r="3" fill="#E8B84A"/>
  <!-- Energy sparkles -->
  <circle cx="40" cy="28" r="2" fill="#E8B84A" opacity="0.6"/>
  <circle cx="36" cy="32" r="1.5" fill="#E8B84A" opacity="0.4"/>
  <circle cx="44" cy="32" r="1.5" fill="#E8B84A" opacity="0.4"/>
  <!-- Video call indicator -->
  <circle cx="68" cy="20" r="3" fill="#E8B84A"/>
  <!-- Sound waves showing conversation -->
  <path d="M10 64C14 62 18 66 22 64C26 62 30 66 34 64" stroke="#E8B84A" stroke-width="1.5" stroke-linecap="round"/>
  <path d="M46 64C50 62 54 66 58 64C62 62 66 66 70 64" stroke="#E8B84A" stroke-width="1.5" stroke-linecap="round"/>
  <!-- Laptop base hint -->
  <path d="M4 60L76 60L72 68H8L4 60Z" stroke="#E8B84A" stroke-width="2" fill="none" stroke-linejoin="round"/>
</svg>