<?xml version="1.0" encoding="UTF-8"?>
<svg id="Layer_2" data-name="Layer 2" xmlns="http://www.w3.org/2000/svg" viewBox="0 0 1410.73 377.73">
  <defs>
    <style>
      .cls-1 {
        fill: #fff;
      }

      .cls-2 {
        fill: #e8b84a;
      }
    </style>
  </defs>
  <g id="Layer_1-2" data-name="Layer 1">
    <g>
      <path class="cls-2" d="M1408,4.08c-.99,2.11.93,5.29,1,6,5.26,55.3-3.38,119.53-1.05,175.55,2.33,26.74.43,53.86,1.07,80.75-7.69,6.57-15.06,13.85-22.04,21.18-24.96,26.22-51.18,51.48-76.54,77.5-1.14,1.17-1.27,3.02-1.43,3.02h-289v-234.5c41.56-43.61,84.91-85.8,127.7-128.3,84.21-1.84,168.64,1.73,252.84-.16,2.28-.05,6.15-1.31,7.46-1.05ZM1379.2,271.29c1.08-.63,3.48,0,5.07-.42,5.78-1.53,2.52-3.73,3.17-6.81s4.18-8.51,5.14-11.89c4.79-16.75,3.27-41.68,3.47-59.63.34-30.1.55-60.4.91-90.99.26-22.11,2.87-50.31-1.1-71.82-.87-4.7-.36-7.8-5.61-9.39-10.19-3.08-21.01-.94-30.75-1.15-51.63-1.13-103.41-.46-154.96.95-5.04.14-13.69-.95-17.99-.11-1.22.24.04,2.87-1.04,3.09-3.97.8-3.39-1.81-4.19-2-1.62-.38-8.17-.3-9.36.48-.9.59-.58,2.54-1.47,2.53-1.85-.01-2.42-2.5-4.48-2.02,2.24,5.07-3.62,5.84-4,7.51s4.41,3.81,5.77,4.21c8.7,2.55,21.17.57,27.45,3.31,1.23.54,1.13,2.4,2.4,2.82,3.21,1.07,10.38.42,14.43,1.6,1.04.3,11.27,5.31,11.69,5.81.3.37,3.49,7.84,3.76,8.74,5.72,19.46,1.59,39.9,2.41,59.49.18,4.36,1.99,9.03,2.09,13,.09,3.39-3.57,7.37,2.01,6.5.24,1.98-1.57,2.57-1.97,4.52-2.25,10.94,5.49,6.08,5.96,6.48,2.68,2.23-2.86,1.86-2.99,2-.53,1.93,2.37,3.97,2.01,5.46-.31,1.26-3.07,1.14-3.03,2.05.06,1.33,1.69,2.36,1.98,4.02.63,3.53.22,7.99,1.35,11.65,1.66,5.35,5.5,5.56,6.42,11.58.96,6.3.95,12.7-.75,18.73,5.02.71,2.15,1.38,2.03,5.5l7.04-.54c2.13,1.43-.6,4.33.37,5.58,1.15,1.48,4.35.74,4.59.97.31.3.19,3.86-.99,4.57-.4.24-6.1.27-8.93,2.02-5.1,3.15-1.64,7.63,2.42,8.38,9.17,1.69,20.66.37,29.97,1.03,9.3.66,19.57,2.77,29.01,3.08,7.21.24,9.95-2.66,18.02,1.89,19.95,11.24,9.07,48.74,15.75,67.25,2.32,6.42,8,4.23,12.22.76,4.7-3.86,4.07-6.41,6.03-9.97.76-1.39,5.26-3.05,6.5-4.76,1.54-2.13,1.53-6.02,2.47-7.26.64-.84,6.85-4.97,8.06-5.94.96-.78,1.17-2.57,1.64-2.85ZM1211,49.08c-6.31-.48-11.76.92-17.46,1.04-23.82.51-47.73-.46-71.55-.05-.01,41.65.04,83.35,0,125.01-1.7,3.21-1.67,9.99,0,13,0,2.99,0,6.01,0,9,0,.59,0,1.43,0,2,0,2,0,4,0,6-1.71,2.54-1.66,8.66,0,11,0,1.67,0,3.33,0,5-1.68,1.86-1.68,7.14,0,9,.03,30.99-.01,62.02,0,93.01,2.99.05,6.02-.08,9.01,0,1.34.03,2.76,0,4,0,63.65.34,127.35-.25,191,0v-79h-109l.05-180.55c-.79-4.51-.98-8.88-1.05-13.45-.02-1.33.03-2.68,0-4-3.64.12-5.76-1.31-5.01,3ZM1105.91,89.23c-1.4-1.32-12.18,2.37-13.94,4.33-3.27,3.65-6.57,6.33-9.62,9.87-.66.76-.51,2.65-1.28,3.22-1.9,1.4-4.36-.74-5.49-.47-2.1.51-.49,7.98-6.07,7.94-.67,0-.08-2.72-1.99-2.03-1.19,1.7-10.32,8.76-10.5,9.56-.26,1.12,3.68,3.99,1.51,7.46-.77,1.24-3.39,1.4-4.5,2.5-2.69,2.68-5.71,10.1-8,13-2.68,3.39-7.61,3.18-8.83,8.21-1.01,4.17,1.79,3.12,1.86,3.79.24,2.2-2.28,3.26-1.68,5.48.54,2.01,7.71,9.69,9.54,11.63-1.55,4.02-.08,13.2,2.03,16.68.77,1.26,2.75.7,3.08,3.17.36,2.63-2.34,1.25-3.78,2.74-1.07,1.1-1.76,7.47-1.85,9.44-.32,6.86-.08,15.2-.49,21.88-.11,1.78-3.07,6.16-2.91,8.88.04.71,2.59-.07,2.06,3.03-.57,3.32-3.51,2.45-4.79,3.77-1.35,1.39-3.04,16.98-3.3,20.23-.97,12.08-.57,31.33,1.15,42.92.46,3.06,2.57,7.55,2.75,9.3s-2.35,2.58-2.74,3.98c-.83,2.98,2.13,2.77,3.35,4.42.7.95.43,2.78.55,2.92.38.42,3.53-1.47,3.98-1s-1.76,11.07,1.58,11.89c.92.22,4.68-1.65,5.42-.89.14.14.15,3.84,0,3.98-.62.6-11.15-.71-5.52,9.04,11.62,2.06,23.33,2.63,35.04,3.94,60.69,3.79,122.45.43,183.02,0,9.28-.07,24,2.21,32.43-.48,1.03-.33,7.39-3.32,7.77-3.72,1.72-1.81.73-5.73,1.43-6.59.54-.66,4.53-.05,3.82-3.16-2.89-.93-4.94,2.16-7.41,2.02-4.26-.24-9.55-3.35-15.95-2.69-6.25.65-14.49,6.06-20.1,5.63-1.83-.14-3.14-1.77-4.99-1.85-2.9-.12-5.75,1.65-9.85.67-1.99-.48-3.64-2.81-5.22-2.82-2.08,0-3.33,4.17-7.82,3.03-.75-.19-.61-1.99-1.28-2.06-1.31-.14-2.91,1.1-4.65.85-3.6-.51-6.37-3.05-11.03-1.6-1.56.49-2.59,3.09-4.07,2.75-1.07-.24-2.02-2.55-3.27-2.81-1.74-.36-3.34,2.35-5.35,1.86.83-4.92-2.08-2.31-5.33-3.02-.82-.18-.26-1.83-2.11-2.04-4.92-.56-1.09,5.59-4.06,4.05-1.15-.59-1-2.91-3.41-3.57s-8.66-1.17-11.61-1.41c-10.11-.84-49.51.63-54.87-2.13-.52-.27-6.27-4.9-6.65-5.35-1.49-1.77-1.82-5.07-2.16-5.35-1.16-.97-4.99-.21-7.82-4.68-2.57-4.06-3.76-17.62-4.04-22.96-.18-3.38.89-6.43.85-9.05-1.05-57.82,2.36-118.08.29-175.89-.26-7.27,1.97-13.42-2.76-19.99-.52-.72-.18-2.25-.42-2.47Z"/>
      <path class="cls-1" d="M549.5,57.08c1.08.18,8.77,2.84,10.49,3.51,20.77,8.17,26.32,34.43,12.53,51.5l-9.51,6.97c33.77,7.32,28.1,54.28-.02,66.5-15.73,6.83-50.87,2.95-69.53,3.47-4.82.13-17.07,4.23-17.51-2.41l1.05-129.55h72.5ZM504,109.08h39.5c3.43,0,9.58-7.33,10.27-10.73,1.51-7.44-4.17-18.27-12.27-18.27h-37.5v29ZM504,166.08h40.5c1.14,0,7.31-3.34,8.5-4.5,6.91-6.74,6.87-20.15-.49-26.52-.72-.62-6.61-3.98-7.02-3.98h-41.5v35Z"/>
      <path class="cls-1" d="M239,92.08c-.11,3.23.87,6.22,1.05,9.45,1.38,25.28.76,58.75-1.01,84.09-.99,14.19-6.15,28.67-19.66,35.34-16.85,8.33-52.12,7.59-64.79-7.97-2.87-3.53-9.94-15-2.14-15.96,3.61-.44,17.79-.58,21.06.04,2.79.53,3.53,4.41,5.59,6.41,8.04,7.82,27.46,4.95,31.94-5.87,2.95-7.11,1.05-13.79,2.91-20.98-.63-.79-1.23-1.81-2.43-1.55-.92.2-10.31,8.78-15.54,10.47-64.14,20.74-69.94-105.38-3.73-96.21,10.45,1.45,15.97,8.71,22.75,15.74v-13h24.01ZM188.74,111.32c-25.84,4.13-23.29,55.96,3.71,54.79,29.63-1.29,27.89-59.84-3.71-54.79Z"/>
      <path class="cls-1" d="M119.59,254.34h-26.5c-3.15-8.98-6.44-16.17-15.46-20.54-17.91-8.67-37.97-.46-45.22,17.86-10.99,27.78-.56,77.37,38.62,67.62,14.16-3.53,18.41-13.44,23.06-25.94h25c3.2,0-.73,12.48-1.46,14.54-18.6,52.31-97.96,47.44-113.76-5.32-10.1-33.74-1.1-78.97,35.2-92.24,33.98-12.42,78.41,4.32,80.52,44.02Z"/>
      <path class="cls-1" d="M284,57.08v46c4.21-.95,6.62-6.02,10.06-8.44,14.23-10,40.04-6.61,48.76,9.11,7.29,13.15,6.1,55.58,5.22,71.87-.13,2.37-1.2,14.46-2.54,14.46h-23c-.11,0-1.5-1.39-1.5-1.5v-63c0-.35-1.47-5.47-1.79-6.21-4.45-10.34-19.58-10.14-27.25-3.83-2.64,2.17-7.96,10.88-7.96,14.04v59.5c-1.28-.55-2.96,1-3.5,1h-21c-.11,0-1.5-1.39-1.5-1.5V57.08h26Z"/>
      <path class="cls-1" d="M669,123.08c-.26-15.03,6.13-26.1,20.46-31.04,16.06-5.53,50.8-5.08,59.75,12.33,7.93,15.43,1.67,52.68,3.79,71.21.78,6.81,5.58,7.39,6,13.5h-28.5c-1.45,0-4.05-8.23-3.51-10-16.23,16.42-52.98,21.24-60.51-5.98-5.43-19.63,3.44-34.06,22.3-39.73,10.1-3.04,21.4-2.31,30.86-5.14,11.24-3.36,7.33-16.92-3.12-18.18-10.54-1.26-23.37-.11-23.53,13.03h-24ZM726,143.08c-10.89,4.24-34.51,1.49-35.04,17.53-.55,16.41,27.05,16.15,33.23,2.15.34-.77,1.81-4.89,1.81-5.19v-14.5Z"/>
      <path class="cls-1" d="M943,96.08c0-.7-1.03-2.53-1.04-4.43-.03-4.77-.56-34.43,1.05-35.57,1.31-.59,2.95,1,3.49,1h21.5c.73,8.39-1.06,16.66-1,25-3.03-.56-1.92,1.53-2,3.45-1.15,29.08.68,58.92.05,88.1-.09,4.17-3.48,6.19,2.95,5.45-.1,3.19-.63,5.13-1,8-3.48-.57-7.08.59-10.33.62-1.85.02-9.19-2.71-8.67,1.38-.59-.17-1.62.21-2.35-.14-2.66-1.29-3.03-8.1-2.65-10.86.03-.19,2.63-2.69-.49-2.01-1.11.24-.2,1.52-.51,2.01-.24.39-.77.66-1,1-4.84.46.27-5.04,0-6.48-.2-1.08-1.66-1.73-3.02-1.04-2.51,1.27-1.66,4.59-2.24,6.76-.3,1.13-1.66,1.83-1.78,3.25-.05.64,2.87.38,2.04,2.51-32.35,24.07-62.88-4.26-64.04-39.45-1.04-31.42,21.87-67.46,56.74-51.74,4.62,2.08,4.98,4.17,7.31,6.19-2.94,1.2-1.56,14.46-1,15,.22.22,2.99-.25,4.27.21.31.11,5.43,3.13,5.67,3.35,2.01,1.85,5.63,11.61,9.49,10.41,5.54-1.73,1.74-34.86,1.52-40.44-.13-3.33,2.52-10.54-1.45-10.54s-1.09,6.97-1.56,10.44c-.66,4.96-4.21,11.45-9.94,8.57ZM917.76,112.34c-27.82,3.55-25.18,61.27,4.73,58.72,21.78-1.86,25.09-36.13,14.51-50.48-4.89-6.64-11-9.29-19.24-8.24ZM887.01,154.09c.8,14.84,10.3,32.36,27.4,29.9,2.85-.41,7.01-1.37,5.13-4.93-1.23-2.31-5.55-2.06-7.82-3.19-3.35-1.66-14.96-9.9-17.16-12.84s-2.92-8.53-7.56-8.93Z"/>
      <path class="cls-1" d="M771,189.08v-97c3.64-1.02,22.07-1.96,24.06-.56.83.58,1.62,8.27,1.74,10.08.08,1.09-1.11,3.12-.8,3.48,1.45,1.69,1.9-.84,2.28-1.27,3.62-4.06,4.36-6.41,9.42-9.52,15.82-9.73,40.85-6.61,49.68,10.91,5.63,11.16,3.57,19.99,3.57,31.34,0,15.01,1.76,35.91.09,50.09-.12,1.01-.46,3.45-1.55,3.45h-24c-.11,0-1.5-1.39-1.5-1.5v-65c0-.72-2.29-5.04-2.99-6.01-7.38-10.15-26.74-7.41-31.5,4.51-3.71,9.3-1.01,35.77-1.46,47.54-.24,6.18-1.55,13.11-1.48,19.52-1.51,2.18-21.59.67-25.56-.06Z"/>
      <path class="cls-1" d="M226.59,284.34c2.32,36.4-15.55,62.81-54.49,59.99-59.3-4.3-60.89-98.8,2.99-102.97,6.14-.4,8.11,2.08,8.96,2.11,1.89.05,4.02-1.25,4.98-1.17.48.04,1.75,2.14,6.97,2.04.6-.01.54,1.56,1.36,1.93,9.36,4.23,16.92,8.61,22.12,17.89,2.29,4.09,2.37,8.52,3.93,12.84.54,1.49,2.15,1.35,2.2,1.97.07.92-.95,1.84-1.02,2.39-.31,2.33-.43,3.5,2,3ZM157.77,271.52c-4.3,14.21-6.85,40.09,8.11,49.03,17.86,10.66,33.28-4.74,34.69-22.72s-4.28-35.47-24.53-34.52c-9.63.45-10.77,4.15-18.27,8.22Z"/>
      <path class="cls-1" d="M461.59,244.34v60.5c0,.69,1.54,6.94,1.93,8.07,4.79,13.65,24.98,11.14,31.28.15.62-1.09,2.79-6.45,2.79-7.21v-60c0-.11,1.39-1.5,1.5-1.5h24.5v95.5c0,.11-1.39,1.5-1.5,1.5h-23.5v-11c-6.82,4.15-12.35,11.35-20.74,12.76-18.17,3.07-36.93-2.93-40.82-22.71-.39-1.99-1.44-8.96-1.44-10.56v-64c0-.11,1.39-1.5,1.5-1.5h24.5Z"/>
      <path class="cls-1" d="M748.59,340.34v-63.5c0-1.06-3.38-7.4-4.45-8.55-7.5-8.01-25.81-4.43-30.09,6.01-4.19,10.24-2.91,43.87-2.5,56.58.06,1.81,2.51,10.46-.46,10.46h-24.5v-97h24l1.5,12c11.99-17.9,43.67-19.94,56.5-2.49,1.69,2.3,6,11.63,6,14v72c0,.11-1.39,1.5-1.5,1.5h-22c-.33,0-1.52-1.32-2.5-1Z"/>
      <path class="cls-1" d="M326.59,341.34h-26v-65.5c0-.39-2.04-4.72-2.55-5.45-6.9-10.12-25.57-8.35-30.85,3.06-1.77,3.82-2.4,12.72-2.65,17.35-.88,16.55.74,33.91.04,50.54h-25v-97h24v12.99c1.97.51,1.94-.81,2.82-1.68,6.58-6.49,8.69-10.94,18.92-13.08,19.14-4,39.11,5.24,41.25,26.27,1.81,17.79.76,43.35,1.02,61.99.04,2.76-.92,7.46-1,10.5Z"/>
      <path class="cls-1" d="M28,57.08v106.5c0,.11,1.39,1.5,1.5,1.5h65.5v23.5c0,.11-1.39,1.5-1.5,1.5H1.5C1.39,190.08,0,188.69,0,188.58V57.08h28Z"/>
      <path class="cls-1" d="M394.59,307.34c-15.04-6-47.45-6.98-52.95-25.55-4.11-13.86,1.75-28.84,14.73-35.17,22.38-10.91,67.15-4.5,65.22,27.72h-23.5c-1.22,0-1.85-4.97-2.63-6.37-4.45-8.04-27.39-8.74-28.92.84-1.05,6.61.99,5.25,5.2,7.66,7.26,4.16,11.67,3.62,20.24,4.89.72.11,10.37,4.85,11.1,4.83,1.84-.03,8.98,2.69,11.69,4.24,4.48,2.56,5.8,6.84,7.49,10.69.58,1.32,2.37,1.11,2.35,1.79-.19,5.89.64,2.4,1.01,4.1.09.42.09,8.24,0,8.66-.18.78-2.06.61-2.06,1.23,0,2.49-.22,6.76-1.92,9.74-.18.32-4.22,5.41-4.52,5.72-3.52,3.55-15.49,9.75-20.53,9.97-.02-1.37,2.62-3.97-.51-4.04-2.29-.05-7.76-.07-9.82.12-2.29.21-5.92.78-7.66,2.43-.49,2.39,1.97,1.45,3.5,1.5,3.2.09,8.84.11,11.49-.01-20.3,5.16-46.87.1-54.78-21.72-.54-1.49-3.68-10.28-.72-10.28h24c1.25,0,1.82,4.99,2.62,6.38,3.38,5.87,8.69,7.27,15.35,7.66,9.17.53,20.54-1.28,18.54-13.04.7.8.98.89,2.32,2.62,1.24,1.6,3.4,1.37,3.54,4.84.25,6.45-11.74,14.21-2.37,18.56,1.36-4.06,5.59-1.94,8.6-4.42,1.9-1.57,3.44-7.26,4.19-9.81,2.38-8.11,4.19-19.45-2.74-25.83-2.22-2.04-17.39-9.3-20.3-9.78-8-1.31-20.69,2.52-26.96-7.22l-8.27-3.96c-1.52,1.59,4.88,11.98,6.42,13.07,2.28,1.61,4.6.48,6.86,1.14,1.45.42,3.2,2.85,5.3,3.7,3.41,1.38,13.71,4.19,16.18,6.31.28.24,2.21,5.52,3.23,6.78ZM371.24,327.7c-2.21-1.15-4.58-.94-6.86-1.66-1.64-.52-2.91-2.28-4.5-2.55-5.27-.89-5.68,5.45-3.38,8.43,2.12,2.75,19.33,5.13,21.12,3.94,3.18-2.1-.42-2.6-1.48-3.53-.87-.76-4.58-4.48-4.89-4.65Z"/>
      <path class="cls-1" d="M851.59,256.34c.5-.44,2.74,1.32,2.99,1,.97-2.26-1.88-13,.51-13h23.5v94.5c0,7.74-5.52,21.36-11.01,26.99-18.34,18.81-74.86,16.77-78-16.49,5.57.49,21.75-2.87,25.58-.08,1.38,1.01,2.65,4.39,4.92,6.08,6.59,4.91,18.64,4.95,25.44.42,9.71-6.46,6.68-19.29,8.06-29.43-2.79-.76-3.25,3.11-4.24,3.78-.92.62-2.01.05-2.76.22-1.82.41-5.85,1.38-7.34,1.03-.76-.18-.64-2.05-1.22-2.06-1.17-.03-5.18,2.68-3.44-1.46.46-1.08,11.07-5.09,13.33-6.67,6.94-4.84,11.14-16.48,12.74-24.27.31-1.5,1.61-2.47,1.67-3.85.3-6.85-5.1-23.79-10.3-28.65-2.74-2.56-9.25-3.6-10.43-7.58-.45-1.54-.07-1.58,1.29-1.31,2.08.41,4.43.46,6.01.84,1.13.27-.03,2.57,2.17,2.01,1.09-.28.24-1.78.51-2.01Z"/>
      <path class="cls-1" d="M395,65.08v27h16v18h-16v53.5c0,7.07,11.01,7.07,16,6.5v20c-15.17.88-40.19,3.51-42.04-17.46-1.72-19.43,1.48-41.21-.1-60.9-1.03-3.15-10.92-1.06-13.86-1.64v-18h14v-25.5c0-.11,1.39-1.5,1.5-1.5h24.5Z"/>
      <path class="cls-1" d="M616.59,245.34h15v16.5c0,.11-1.39,1.5-1.5,1.5h-14.5v49.5c0,.3,1.06,5.45,1.19,5.81,1.59,4.44,14.12,2.83,15.37,4.63,1.14,1.63-.37,16.69-1.54,17.59-3.5,2.67-21.59,1.61-26.24.2s-13.78-7.1-13.78-12.22v-65.5c-4.69-.08-9.49.54-14-1v-17c5.03.07,9-1.71,14,0v-27h24.5c.11,0,1.5,1.39,1.5,1.5v25.5Z"/>
      <path class="cls-1" d="M851.59,256.34c-.26.23.59,1.73-.51,2.01-2.2.57-1.04-1.74-2.17-2.01-1.59-.38-3.93-.43-6.01-.84-1.36-.27-1.75-.23-1.29,1.31,1.17,3.98,7.69,5.02,10.43,7.58,5.2,4.87,10.6,21.81,10.3,28.65-.06,1.38-1.36,2.36-1.67,3.85-1.59,7.79-5.8,19.43-12.74,24.27-2.26,1.58-12.87,5.59-13.33,6.67-1.74,4.14,2.26,1.43,3.44,1.46.58.01.47,1.88,1.22,2.06,1.49.36,5.52-.62,7.34-1.03-4.64,6.21-11.81,8.62-19.46,9.03-51.16,2.73-54.8-86.79-7.79-96.78,11.78-2.5,27.88,1.4,32.25,13.74ZM849.26,310.12c.43-.56,3.87-12.08,4.07-13.54,1.54-11.42-2.79-30.19-16.33-32.15-21.7-3.14-26.51,16.65-24.16,34.15,1.8,13.35,14.21,24.11,27.64,18.15,1.06-.47,8.28-5.96,8.78-6.62Z"/>
      <path class="cls-1" d="M567.59,341.34h-26v-130.5c0-.11,1.39-1.5,1.5-1.5h23c.11,0,1.5,1.39,1.5,1.5v130.5Z"/>
      <path class="cls-1" d="M643.5,116.08c-2.26.37-9.5,4.58-11.15,6.35-1.93,2.07-5.35,9.55-5.35,12.15v54.5c-1.28-.55-2.96,1-3.5,1h-22.5v-97.5c0-.11,1.39-1.5,1.5-1.5h22c.11,0,1.5,1.39,1.5,1.5v15.5c5.78-5.94,7.78-12.58,15.96-16.54,2.42-1.17,18.04-6.08,18.04-1.96v25c0,.11-1.39,1.5-1.5,1.5-4.34,0-11.1-.64-15,0Z"/>
      <path class="cls-1" d="M132,189.08c-1.28-.55-2.96,1-3.5,1h-22.5l-1-99h25.5c.11,0,1.5,1.39,1.5,1.5v96.5Z"/>
      <polygon class="cls-1" points="667.59 244.34 666.09 341.34 642.59 341.34 642.59 244.34 667.59 244.34"/>
      <path class="cls-1" d="M394.59,307.34c-1.03-1.26-2.95-6.53-3.23-6.78-2.47-2.13-12.77-4.93-16.18-6.31-2.1-.85-3.85-3.28-5.3-3.7-2.27-.66-4.58.48-6.86-1.14-1.54-1.09-7.94-11.48-6.42-13.07l8.27,3.96c6.28,9.74,18.97,5.91,26.96,7.22,2.91.48,18.08,7.74,20.3,9.78,6.94,6.38,5.12,17.72,2.74,25.83-.75,2.55-2.29,8.24-4.19,9.81-3.01,2.48-7.24.36-8.6,4.42-9.38-4.35,2.62-12.11,2.37-18.56-.14-3.47-2.3-3.24-3.54-4.84-1.34-1.74-1.62-1.82-2.32-2.62-1.37-1.56-2.95-2.71-4-4Z"/>
      <path class="cls-1" d="M1025.35,6.43c21.99-20.42,56.12,12.35,32.15,34.65-23.45,21.81-53.15-15.15-32.15-34.65ZM1053,37.08c.68-.62,2.11-.15,3.86-2.64,3.12-4.45,3.77-9.99,2.46-15.18-6.17-24.47-42.46-13.8-35.02,10.03,3.44,11.03,13.63,13.45,24.15,11.73,4.07-.67,3.83-3.28,4.56-3.94-.32.31-4.06.06-5.01-.49-3.48-2.02.94-11.51-10.99-8.52-.09,4.76,1.69,10.02-4.99,9V11.08h14.5c2.31,0,6.95,4.21,7.34,6.72.6,3.8-3.95,5.23-3.95,8.77,0,2.31,5.12,8.5,3.1,10.51ZM1046.9,16.18c-.42-.5-8.45-1.54-8.9-1.1v7.01c2.11-.29,6.48.68,8.07-.44,1.1-.78,1.4-4.79.83-5.47Z"/>
      <rect class="cls-1" x="105" y="56.08" width="27" height="24"/>
      <path class="cls-1" d="M667.09,204.08c2.47,7.98-.62,16.07,1,24h-26v-24h25Z"/>
      <path class="cls-1" d="M943,96.08c5.73,2.87,9.28-3.61,9.94-8.57.46-3.47-2.56-10.44,1.56-10.44s1.31,7.21,1.45,10.54c.22,5.58,4.02,38.71-1.52,40.44-3.85,1.2-7.48-8.56-9.49-10.41-.24-.22-5.36-3.24-5.67-3.35-1.28-.46-4.04,0-4.27-.21-.56-.54-1.95-13.8,1-15,1.51,1.31,4.48,2.56,5.99,5-.47-2.73,1.04-5.38,1.01-8Z"/>
      <path class="cls-1" d="M967,82.08c.22,31.94,1.98,64.75,1,97-6.43.74-3.04-1.28-2.95-5.45.63-29.18-1.2-59.02-.05-88.1.08-1.93-1.03-4.01,2-3.45Z"/>
      <path class="cls-1" d="M393.59,342.34c-2.66.12-8.3.1-11.49.01-1.53-.04-3.98.9-3.5-1.5,1.74-1.65,5.37-2.22,7.66-2.43,2.06-.19,7.53-.17,9.82-.12,3.14.06.5,2.66.51,4.04-1,.04-2-.05-3,0Z"/>
      <path class="cls-1" d="M967,187.08c-.01.1,1.08.74.92,1.38-.76,3.06-16.65,1.55-19.92.62-.52-4.09,6.82-1.36,8.67-1.38,3.25-.04,6.85-1.2,10.33-.62Z"/>
      <path class="cls-1" d="M936,184.08c.84-2.13-2.09-1.87-2.04-2.51.11-1.42,1.47-2.12,1.78-3.25.58-2.17-.27-5.49,2.24-6.76,1.36-.69,2.82-.03,3.02,1.04.27,1.43-4.85,6.94,0,6.48-2.49,3.77-1.97,2.74-5,5Z"/>
      <path class="cls-2" d="M1409,10.08c-.07-.71-1.99-3.89-1-6,2.6.52,2.66,4.46,1,6Z"/>
      <path class="cls-1" d="M319,302.08c2.89-.46,1.85.71,2,3-2.43.5-2.31-.67-2-3Z"/>
      <path class="cls-1" d="M942,178.08c.31-.48-.6-1.76.51-2.01,3.12-.68.52,1.82.49,2.01h-1Z"/>
      <path class="cls-2" d="M1379.2,271.29c-.47.28-.68,2.07-1.64,2.85-1.21.98-7.42,5.11-8.06,5.94-.94,1.23-.93,5.13-2.47,7.26-1.24,1.71-5.74,3.38-6.5,4.76-1.96,3.56-1.33,6.11-6.03,9.97-4.21,3.46-9.9,5.65-12.22-.76-6.68-18.51,4.2-56.01-15.75-67.25-8.07-4.55-10.81-1.65-18.02-1.89-9.44-.31-19.72-2.42-29.01-3.08-9.31-.66-20.81.66-29.97-1.03-4.07-.75-7.52-5.23-2.42-8.38,2.82-1.75,8.53-1.78,8.93-2.02,1.18-.72,1.3-4.27.99-4.57-.24-.23-3.44.51-4.59-.97-.97-1.25,1.76-4.15-.37-5.58l-7.04.54c.12-4.12,3-4.79-2.03-5.5,1.7-6.03,1.71-12.42.75-18.73-.92-6.02-4.76-6.23-6.42-11.58-1.13-3.66-.72-8.11-1.35-11.65-.3-1.66-1.93-2.7-1.98-4.02-.04-.92,2.72-.8,3.03-2.05.36-1.49-2.54-3.53-2.01-5.46.14-.15,5.68.23,2.99-2-.48-.4-8.22,4.46-5.96-6.48.4-1.95,2.21-2.54,1.97-4.52-5.58.87-1.92-3.11-2.01-6.5-.1-3.98-1.91-8.64-2.09-13-.82-19.59,3.31-40.03-2.41-59.49-.26-.9-3.45-8.38-3.76-8.74-.41-.5-10.65-5.51-11.69-5.81-4.05-1.18-11.22-.53-14.43-1.6-1.26-.42-1.17-2.28-2.4-2.82-6.27-2.73-18.74-.75-27.45-3.31-1.36-.4-6.15-2.53-5.77-4.21s6.24-2.44,4-7.51c2.06-.48,2.63,2.01,4.48,2.02.89,0,.57-1.94,1.47-2.53,1.19-.78,7.74-.85,9.36-.48.8.19.22,2.8,4.19,2,1.09-.22-.18-2.85,1.04-3.09,4.3-.83,12.95.25,17.99.11,51.55-1.41,103.33-2.08,154.96-.95,9.74.21,20.56-1.93,30.75,1.15,5.25,1.59,4.74,4.69,5.61,9.39,3.97,21.5,1.36,49.71,1.1,71.82-.36,30.59-.57,60.9-.91,90.99-.2,17.94,1.32,42.88-3.47,59.63-.97,3.38-4.5,8.88-5.14,11.89s2.61,5.29-3.17,6.81c-1.59.42-3.99-.21-5.07.42Z"/>
      <path class="cls-2" d="M1105.91,89.23c.24.23-.1,1.75.42,2.47,4.73,6.56,2.5,12.72,2.76,19.99,2.07,57.82-1.34,118.08-.29,175.89.05,2.62-1.03,5.66-.85,9.05.28,5.34,1.47,18.9,4.04,22.96,2.83,4.47,6.66,3.71,7.82,4.68.34.28.67,3.57,2.16,5.35.38.45,6.13,5.08,6.65,5.35,5.36,2.77,44.76,1.29,54.87,2.13,2.95.25,9.16.74,11.61,1.41s2.27,2.97,3.41,3.57c2.97,1.54-.86-4.61,4.06-4.05,1.85.21,1.29,1.86,2.11,2.04,3.24.71,6.16-1.9,5.33,3.02,2.01.49,3.62-2.22,5.35-1.86,1.25.26,2.2,2.56,3.27,2.81,1.48.34,2.51-2.26,4.07-2.75,4.66-1.45,7.43,1.1,11.03,1.6,1.74.24,3.34-.99,4.65-.85.67.07.53,1.87,1.28,2.06,4.49,1.13,5.74-3.04,7.82-3.03,1.58,0,3.22,2.34,5.22,2.82,4.1.98,6.95-.79,9.85-.67,1.85.08,3.16,1.71,4.99,1.85,5.61.42,13.85-4.98,20.1-5.63,6.39-.67,11.69,2.44,15.95,2.69,2.47.14,4.52-2.95,7.41-2.02.71,3.11-3.28,2.51-3.82,3.16-.7.86.29,4.78-1.43,6.59-.38.4-6.74,3.39-7.77,3.72-8.43,2.7-23.15.42-32.43.48-60.57.43-122.34,3.8-183.02,0-11.71-1.31-23.42-1.88-35.04-3.94-5.63-9.75,4.9-8.43,5.52-9.04.14-.14.13-3.84,0-3.98-.74-.77-4.5,1.11-5.42.89-3.34-.82-1.15-11.43-1.58-11.89s-3.6,1.42-3.98,1c-.13-.14.15-1.96-.55-2.92-1.22-1.65-4.18-1.44-3.35-4.42.39-1.4,2.92-2.14,2.74-3.98s-2.29-6.23-2.75-9.3c-1.73-11.6-2.12-30.85-1.15-42.92.26-3.25,1.95-18.84,3.3-20.23s4.23-.46,4.79-3.77c.53-3.11-2.01-2.32-2.06-3.03-.17-2.72,2.8-7.1,2.91-8.88.41-6.68.17-15.02.49-21.88.09-1.98.78-8.35,1.85-9.44,1.45-1.49,4.14-.11,3.78-2.74-.34-2.47-2.32-1.91-3.08-3.17-2.11-3.48-3.58-12.66-2.03-16.68-1.83-1.94-9-9.62-9.54-11.63-.59-2.22,1.92-3.29,1.68-5.48-.07-.67-2.87.38-1.86-3.79,1.22-5.03,6.15-4.82,8.83-8.21,2.29-2.9,5.31-10.33,8-13,1.11-1.1,3.72-1.26,4.5-2.5,2.17-3.47-1.77-6.34-1.51-7.46.19-.8,9.31-7.85,10.5-9.56,1.91-.69,1.31,2.03,1.99,2.03,5.59.04,3.97-7.43,6.07-7.94,1.13-.27,3.59,1.86,5.49.47.78-.57.63-2.45,1.28-3.22,3.05-3.54,6.35-6.22,9.62-9.87,1.76-1.96,12.53-5.65,13.94-4.33Z"/>
      <path class="cls-2" d="M1211,49.08c-.75-4.32,1.36-2.88,5.01-3,.03,1.33-.03,2.67,0,4-1.7.14-3.47-.88-5-1Z"/>
      <path class="cls-2" d="M1122,188.08c-1.67-3.01-1.7-9.79,0-13,0,4.32,0,8.68,0,13Z"/>
      <path class="cls-2" d="M1122,216.08c-1.66-2.34-1.71-8.46,0-11,0,3.66,0,7.34,0,11Z"/>
      <path class="cls-2" d="M1122,230.08c-1.68-1.86-1.68-7.14,0-9,0,2.99,0,6.01,0,9Z"/>
      <path class="cls-2" d="M1135,323.08c-1.24,0-2.66.03-4,0,.32-1.5,3.59-1.56,4,0Z"/>
      <path class="cls-2" d="M1122,199.08c0-.57,0-1.41,0-2v2Z"/>
      <path class="cls-1" d="M887.01,154.09c4.64.41,5.39,6.04,7.56,8.93s13.81,11.18,17.16,12.84c2.27,1.13,6.59.88,7.82,3.19,1.89,3.56-2.28,4.52-5.13,4.93-17.1,2.47-26.6-15.06-27.4-29.9Z"/>
      <path class="cls-1" d="M371.24,327.7c.32.16,4.03,3.88,4.89,4.65,1.06.93,4.66,1.43,1.48,3.53-1.8,1.19-19.01-1.19-21.12-3.94-2.3-2.99-1.89-9.33,3.38-8.43,1.59.27,2.86,2.02,4.5,2.55,2.28.72,4.65.51,6.86,1.66Z"/>
    </g>
  </g>
</svg>