<svg xmlns="http://www.w3.org/2000/svg" width="64" height="64" viewBox="0 0 64 64" fill="none">
  <!-- Professional Services: Handshake with network nodes -->
  <defs>
    <linearGradient id="profGrad" x1="0%" y1="0%" x2="100%" y2="100%">
      <stop offset="0%" stop-color="#E8B84A"/>
      <stop offset="100%" stop-color="#D4944C"/>
    </linearGradient>
  </defs>
  <!-- Handshake -->
  <path d="M10 28L18 20H26L32 26L38 20H46L54 28" stroke="url(#profGrad)" stroke-width="2.5" fill="none" stroke-linecap="round" stroke-linejoin="round"/>
  <path d="M18 28L26 36L34 28L42 36" stroke="#E8B84A" stroke-width="2" fill="none" stroke-linecap="round" stroke-linejoin="round"/>
  <!-- Sleeve cuffs -->
  <path d="M8 30L10 28L10 36L8 38" stroke="#E8B84A" stroke-width="2" fill="none" stroke-linecap="round" stroke-linejoin="round"/>
  <path d="M56 30L54 28L54 36L56 38" stroke="#E8B84A" stroke-width="2" fill="none" stroke-linecap="round" stroke-linejoin="round"/>
  <!-- Connection nodes -->
  <circle cx="20" cy="48" r="4" stroke="#E8B84A" stroke-width="1.5" fill="none"/>
  <circle cx="32" cy="52" r="4" stroke="#E8B84A" stroke-width="1.5" fill="none"/>
  <circle cx="44" cy="48" r="4" stroke="#E8B84A" stroke-width="1.5" fill="none"/>
  <!-- Node connections -->
  <path d="M24 48L28 52M36 52L40 48" stroke="#E8B84A" stroke-width="1.5" stroke-linecap="round"/>
  <!-- Briefcase hint above -->
  <rect x="26" y="8" width="12" height="8" rx="2" stroke="#E8B84A" stroke-width="1.5" fill="none"/>
  <path d="M30 8V6C30 5 31 4 32 4C33 4 34 5 34 6V8" stroke="#E8B84A" stroke-width="1.5" fill="none"/>
</svg>