<svg xmlns="http://www.w3.org/2000/svg" width="80" height="80" viewBox="0 0 80 80" fill="none">
  <!-- Intellectual Humility: Open book with question mark, learning spiral -->
  <defs>
    <linearGradient id="humilityGrad" x1="0%" y1="0%" x2="100%" y2="100%">
      <stop offset="0%" stop-color="#E8B84A"/>
      <stop offset="100%" stop-color="#D4944C"/>
    </linearGradient>
  </defs>
  <!-- Open book -->
  <path d="M40 20C40 20 28 16 12 18V60C28 58 40 62 40 62C40 62 52 58 68 60V18C52 16 40 20 40 20Z"
        stroke="url(#humilityGrad)" stroke-width="2.5" fill="none" stroke-linejoin="round"/>
  <!-- Book spine -->
  <path d="M40 20V62" stroke="#E8B84A" stroke-width="2"/>
  <!-- Page lines left -->
  <path d="M18 28H34M18 36H32M18 44H30" stroke="#E8B84A" stroke-width="1.5" stroke-linecap="round" opacity="0.6"/>
  <!-- Question mark on right page -->
  <path d="M50 30C50 26 54 24 58 26C62 28 62 34 58 36C56 38 54 38 54 42"
        stroke="#E8B84A" stroke-width="2.5" stroke-linecap="round" fill="none"/>
  <circle cx="54" cy="48" r="2" fill="#E8B84A"/>
  <!-- Learning spiral/infinity at top -->
  <path d="M28 8C24 8 20 10 20 14C20 18 28 18 32 14C36 10 32 6 28 8Z"
        stroke="#E8B84A" stroke-width="1.5" fill="none"/>
  <path d="M52 8C56 8 60 10 60 14C60 18 52 18 48 14C44 10 48 6 52 8Z"
        stroke="#E8B84A" stroke-width="1.5" fill="none"/>
  <!-- Curiosity dots -->
  <circle cx="10" cy="40" r="2" fill="#E8B84A" opacity="0.5"/>
  <circle cx="70" cy="40" r="2" fill="#E8B84A" opacity="0.5"/>
  <circle cx="40" cy="72" r="2" fill="#E8B84A" opacity="0.5"/>
</svg>